<svg width="230" height="231" viewBox="0 0 230 231" fill="none" xmlns="http://www.w3.org/2000/svg">
<circle cx="115" cy="115.909" r="109" stroke="white" stroke-width="12"/>
<path d="M136.673 71.4029C135.061 63.0202 127.68 56.6666 118.841 56.6666C108.826 56.6666 100.679 64.8205 100.679 74.8426V80.7318C97.1089 82.197 93.8156 84.3757 90.9888 87.2047C83.0368 95.1626 80.3353 106.737 83.7911 117.285L76.4781 124.603L75.6461 130.697L69.5572 131.53L63.0913 138.001L62.2593 144.094L56.1704 144.927L46.1758 154.93L57.4585 166.221H72.7165L102.704 136.211C108.343 138.056 114.362 138.153 120.009 136.531V137.491L123.726 142.389L120.009 147.286V156.438L123.726 161.336L120.009 166.233V180.379H135.965L146.754 169.581V127.141C156.65 122.129 162.918 112.032 162.918 100.778C162.918 85.5921 151.416 73.0462 136.673 71.4029ZM133.382 91.6863C135.221 91.6863 136.718 93.1839 136.718 95.0251C136.718 96.8663 135.221 98.3639 133.382 98.3639C131.542 98.3639 130.045 96.8661 130.045 95.0251C130.045 93.1842 131.542 91.6863 133.382 91.6863ZM107.922 74.8426C107.922 68.8172 112.821 63.9154 118.841 63.9154C123.701 63.9154 127.828 67.1099 129.239 71.5104C123.394 72.3353 118.093 74.8782 113.864 78.6122C111.86 78.4752 109.871 78.5407 107.922 78.7997V74.8426ZM120.009 128.885C114.616 131.003 108.6 130.945 103.196 128.662L100.95 127.714L69.7164 158.972H60.4586L56.4191 154.93L59.5677 151.779L68.691 150.531L69.9375 141.4L72.9545 138.381L82.0778 137.133L83.3244 128.003L92.282 119.039L91.3341 116.792C87.7886 108.384 89.6636 98.7822 96.1105 92.33C99.3354 89.1026 103.366 86.9957 107.707 86.177C105.25 90.4869 103.845 95.4709 103.845 100.778C103.845 112.032 110.113 122.128 120.009 127.141V128.885ZM141.769 121.455L139.511 122.373V166.579L132.965 173.13H127.252V168.674L132.821 161.335L127.252 153.997V149.727L132.821 142.389L127.252 135.05V122.373L124.994 121.455C116.546 118.018 111.088 109.902 111.088 100.778C111.088 89.7094 119.183 80.4993 129.76 78.7628V85.0764C125.704 86.5595 122.802 90.4591 122.802 95.0246C122.802 100.863 127.548 105.612 133.381 105.612C139.215 105.612 143.961 100.863 143.961 95.0246C143.961 90.4591 141.058 86.5595 137.003 85.0764V78.763C147.579 80.4996 155.675 89.7099 155.675 100.778C155.675 109.903 150.217 118.019 141.769 121.455Z" fill="white"/>
</svg>
